<svg width="61" height="59" viewBox="0 0 61 59" fill="none" xmlns="http://www.w3.org/2000/svg">
<path d="M54.4 30.7627L19.8097 52.9456C18.8114 53.5858 17.5 52.8689 17.5 51.6829L17.5 7.3171C17.5 6.13109 18.8114 5.41419 19.8098 6.05444L54.4 28.2373C55.3204 28.8276 55.3204 30.1724 54.4 30.7627Z" stroke="url(#paint0_linear_2040_118)" stroke-width="5" stroke-linejoin="round"/>
<path d="M31.431 30.7607L4.81281 47.9224C3.81465 48.566 2.5 47.8494 2.5 46.6617L2.5 12.3383C2.5 11.1506 3.81465 10.434 4.81282 11.0776L31.431 28.2393C32.3473 28.8301 32.3473 30.17 31.431 30.7607Z" stroke="url(#paint1_linear_2040_118)" stroke-width="5" stroke-linejoin="round"/>
<defs>
<linearGradient id="paint0_linear_2040_118" x1="83.08" y1="25.8839" x2="37.08" y2="25.8839" gradientUnits="userSpaceOnUse">
<stop offset="0.348958" stop-color="white"/>
<stop offset="0.349058"/>
</linearGradient>
<linearGradient id="paint1_linear_2040_118" x1="56.24" y1="26.4968" x2="18.24" y2="26.4968" gradientUnits="userSpaceOnUse">
<stop offset="0.348958" stop-color="white"/>
<stop offset="0.349058"/>
</linearGradient>
</defs>
</svg>
