<svg width="61" height="59" viewBox="0 0 61 59" fill="none" xmlns="http://www.w3.org/2000/svg">
<path d="M6.59996 30.7627L41.1903 52.9456C42.1886 53.5858 43.5 52.8689 43.5 51.6829L43.5 7.3171C43.5 6.13109 42.1886 5.41419 41.1902 6.05444L6.59995 28.2373C5.67962 28.8276 5.67962 30.1724 6.59996 30.7627Z" stroke="url(#paint0_linear_2040_128)" stroke-width="5" stroke-linejoin="round"/>
<path d="M29.569 30.7607L56.1872 47.9224C57.1854 48.566 58.5 47.8494 58.5 46.6617L58.5 12.3383C58.5 11.1506 57.1854 10.434 56.1872 11.0776L29.569 28.2393C28.6527 28.8301 28.6527 30.17 29.569 30.7607Z" stroke="url(#paint1_linear_2040_128)" stroke-width="5" stroke-linejoin="round"/>
<defs>
<linearGradient id="paint0_linear_2040_128" x1="-22.08" y1="25.8839" x2="23.92" y2="25.8839" gradientUnits="userSpaceOnUse">
<stop offset="0.348958" stop-color="white"/>
<stop offset="0.349058"/>
</linearGradient>
<linearGradient id="paint1_linear_2040_128" x1="4.76" y1="26.4968" x2="42.76" y2="26.4968" gradientUnits="userSpaceOnUse">
<stop offset="0.348958" stop-color="white"/>
<stop offset="0.349058"/>
</linearGradient>
</defs>
</svg>
